<svg width="27" height="27" viewBox="0 0 27 27" fill="none" stroke='none' xmlns="http://www.w3.org/2000/svg">
<path d="M2.856 2.66683L5.34667 18.8482C5.39093 19.1709 5.5518 19.4662 5.79892 19.6785C6.04603 19.8907 6.36229 20.0051 6.688 20.0002H21.3333C21.6202 20.0002 21.8994 19.9077 22.1295 19.7364C22.3596 19.5652 22.5283 19.3243 22.6107 19.0495L26.6107 5.71617C26.6703 5.51709 26.6826 5.30682 26.6465 5.10215C26.6105 4.89748 26.5271 4.70407 26.403 4.53736C26.2789 4.37065 26.1175 4.23526 25.9318 4.14199C25.7461 4.04872 25.5412 4.00015 25.3333 4.00017H5.76L5.32 1.1495C5.2747 0.823438 5.11037 0.525661 4.85867 0.3135C4.61271 0.106358 4.30019 -0.0049204 3.97867 0.000167029H1.33333C0.979711 0.000167029 0.640573 0.140643 0.390524 0.390691C0.140476 0.64074 0 0.979878 0 1.3335C0 1.68712 0.140476 2.02626 0.390524 2.27631C0.640573 2.52636 0.979711 2.66683 1.33333 2.66683H2.856ZM7.81067 17.3335L6.17067 6.66683H23.5413L20.3413 17.3335H7.81067ZM10.6667 24.0002C10.6667 24.7074 10.3857 25.3857 9.88562 25.8858C9.38552 26.3859 8.70724 26.6668 8 26.6668C7.29276 26.6668 6.61448 26.3859 6.11438 25.8858C5.61428 25.3857 5.33333 24.7074 5.33333 24.0002C5.33333 23.2929 5.61428 22.6146 6.11438 22.1145C6.61448 21.6145 7.29276 21.3335 8 21.3335C8.70724 21.3335 9.38552 21.6145 9.88562 22.1145C10.3857 22.6146 10.6667 23.2929 10.6667 24.0002ZM22.6667 24.0002C22.6667 24.7074 22.3857 25.3857 21.8856 25.8858C21.3855 26.3859 20.7072 26.6668 20 26.6668C19.2928 26.6668 18.6145 26.3859 18.1144 25.8858C17.6143 25.3857 17.3333 24.7074 17.3333 24.0002C17.3333 23.2929 17.6143 22.6146 18.1144 22.1145C18.6145 21.6145 19.2928 21.3335 20 21.3335C20.7072 21.3335 21.3855 21.6145 21.8856 22.1145C22.3857 22.6146 22.6667 23.2929 22.6667 24.0002Z" fill="black"/>
</svg>
