<svg width="31" height="31" viewBox="0 0 31 31" fill="none" xmlns="http://www.w3.org/2000/svg">
<path d="M13.3682 10.6656V12.7828H11.8184V15.3704H13.3682V23.0625H16.5539V15.3704H18.691C18.691 15.3704 18.8924 14.1296 18.9893 12.772H16.5662V11.0039C16.5662 10.7379 16.9136 10.3827 17.258 10.3827H18.9923V7.6875H16.6323C13.2897 7.6875 13.3682 10.2782 13.3682 10.6656Z" fill="black"/>
<path d="M15.375 27.675C18.6372 27.675 21.7657 26.3791 24.0724 24.0724C26.3791 21.7657 27.675 18.6372 27.675 15.375C27.675 12.1128 26.3791 8.98428 24.0724 6.67759C21.7657 4.37089 18.6372 3.075 15.375 3.075C12.1128 3.075 8.98428 4.37089 6.67759 6.67759C4.37089 8.98428 3.075 12.1128 3.075 15.375C3.075 18.6372 4.37089 21.7657 6.67759 24.0724C8.98428 26.3791 12.1128 27.675 15.375 27.675ZM15.375 30.75C6.88339 30.75 0 23.8666 0 15.375C0 6.88339 6.88339 0 15.375 0C23.8666 0 30.75 6.88339 30.75 15.375C30.75 23.8666 23.8666 30.75 15.375 30.75Z" fill="black"/>
</svg>
