<svg width="37" height="37" viewBox="0 0 37 37" fill="none" xmlns="http://www.w3.org/2000/svg">
<path d="M18.4508 4.61279H12.3008C8.0551 4.61279 4.61328 8.05461 4.61328 12.3003V24.6003C4.61328 28.8459 8.0551 32.2878 12.3008 32.2878H24.6008C28.8464 32.2878 32.2883 28.8459 32.2883 24.6003V12.3003C32.2883 8.05461 28.8464 4.61279 24.6008 4.61279H18.4508Z" stroke="black" stroke-width="2.7" stroke-linecap="round" stroke-linejoin="round"/>
<path d="M18.4508 12.3003C21.8473 12.3003 24.6008 15.0537 24.6008 18.4503C24.6008 21.8468 21.8473 24.6003 18.4508 24.6003C15.0542 24.6003 12.3008 21.8468 12.3008 18.4503C12.3008 15.0537 15.0542 12.3003 18.4508 12.3003Z" stroke="black" stroke-width="2.7" stroke-linecap="round" stroke-linejoin="round"/>
<path d="M26.1383 13.069C27.412 13.069 28.4445 12.0365 28.4445 10.7628C28.4445 9.48909 27.412 8.45654 26.1383 8.45654C24.8646 8.45654 23.832 9.48909 23.832 10.7628C23.832 12.0365 24.8646 13.069 26.1383 13.069Z" fill="black"/>
</svg>
