<svg width="18" height="29" viewBox="0 0 18 29" fill="none" xmlns="http://www.w3.org/2000/svg">
<path d="M16.6001 0.745677C16.8447 0.98051 17.0387 1.25945 17.1711 1.56652C17.3034 1.8736 17.3716 2.20278 17.3716 2.53523C17.3716 2.86767 17.3034 3.19685 17.1711 3.50393C17.0387 3.811 16.8447 4.08994 16.6001 4.32477L6.36436 14.1736L16.6001 24.0225C17.0934 24.4971 17.3705 25.1408 17.3705 25.8121C17.3705 26.4833 17.0934 27.127 16.6001 27.6016C16.1068 28.0762 15.4378 28.3429 14.7402 28.3429C14.0427 28.3429 13.3737 28.0762 12.8804 27.6016L0.771641 15.9505C0.527081 15.7157 0.333057 15.4367 0.200674 15.1297C0.0682926 14.8226 0.000152588 14.4934 0.000152588 14.1609C0.000152588 13.8285 0.0682926 13.4993 0.200674 13.1922C0.333057 12.8852 0.527081 12.6062 0.771641 12.3714L12.8804 0.720292C13.8829 -0.244287 15.5712 -0.244287 16.6001 0.745677Z" fill="black"/>
</svg>
