<svg width="37" height="37" viewBox="0 0 37 37" fill="none" xmlns="http://www.w3.org/2000/svg">
<path d="M28.3518 4.70508H8.54883C7.53028 4.70792 6.55425 5.1138 5.83402 5.83402C5.1138 6.55425 4.70792 7.53028 4.70508 8.54883V28.3518C4.70792 29.3704 5.1138 30.3464 5.83402 31.0666C6.55425 31.7869 7.53028 32.1927 8.54883 32.1956H28.3518C29.3713 32.1956 30.3489 31.7906 31.0698 31.0698C31.7906 30.3489 32.1956 29.3713 32.1956 28.3518V8.54883C32.1956 7.5294 31.7906 6.55173 31.0698 5.83089C30.3489 5.11004 29.3713 4.70508 28.3518 4.70508ZM30.6581 28.3518C30.6541 28.9622 30.4098 29.5465 29.9781 29.9781C29.5465 30.4098 28.9622 30.6541 28.3518 30.6581H8.54883C7.93842 30.6541 7.35415 30.4098 6.92252 29.9781C6.49088 29.5465 6.24661 28.9622 6.24258 28.3518V8.54883C6.24661 7.93842 6.49088 7.35415 6.92252 6.92252C7.35415 6.49088 7.93842 6.24661 8.54883 6.24258H28.3518C28.9622 6.24661 29.5465 6.49088 29.9781 6.92252C30.4098 7.35415 30.6541 7.93842 30.6581 8.54883V28.3518Z" fill="black"/>
<path d="M9.80371 16.5253C9.80371 16.1175 9.9657 15.7265 10.254 15.4381C10.5424 15.1498 10.9334 14.9878 11.3412 14.9878C11.749 14.9878 12.1401 15.1498 12.4284 15.4381C12.7167 15.7265 12.8787 16.1175 12.8787 16.5253V26.519C12.8787 26.9268 12.7167 27.3179 12.4284 27.6062C12.1401 27.8946 11.749 28.0565 11.3412 28.0565C10.9334 28.0565 10.5424 27.8946 10.254 27.6062C9.9657 27.3179 9.80371 26.9268 9.80371 26.519V16.5253Z" fill="black"/>
<path d="M11.3412 11.9065C12.1903 11.9065 12.8787 11.2182 12.8787 10.369C12.8787 9.51991 12.1903 8.83154 11.3412 8.83154C10.4921 8.83154 9.80371 9.51991 9.80371 10.369C9.80371 11.2182 10.4921 11.9065 11.3412 11.9065Z" fill="black"/>
<path d="M27.0907 20.5565V26.522C27.0907 26.9298 26.9287 27.3209 26.6404 27.6092C26.3521 27.8975 25.961 28.0595 25.5532 28.0595C25.1455 28.0595 24.7544 27.8975 24.4661 27.6092C24.1777 27.3209 24.0157 26.9298 24.0157 26.522V20.5565C24.0157 19.898 23.7541 19.2664 23.2885 18.8007C22.8228 18.3351 22.1912 18.0735 21.5327 18.0735C20.8741 18.0735 20.2425 18.3351 19.7769 18.8007C19.3112 19.2664 19.0496 19.898 19.0496 20.5565V26.522C19.0496 26.9298 18.8876 27.3209 18.5993 27.6092C18.3109 27.8975 17.9199 28.0595 17.5121 28.0595C17.1043 28.0595 16.7133 27.8975 16.4249 27.6092C16.1366 27.3209 15.9746 26.9298 15.9746 26.522V16.5283C15.981 16.1225 16.145 15.7351 16.4319 15.4481C16.7189 15.1611 17.1063 14.9971 17.5121 14.9908C17.7725 14.9836 18.03 15.047 18.2574 15.1742C18.4847 15.3014 18.6734 15.4877 18.8036 15.7134C19.649 15.2342 20.6054 14.9854 21.5772 14.9919C22.5489 14.9983 23.5019 15.2598 24.3409 15.7501C25.1799 16.2404 25.8755 16.9424 26.358 17.7859C26.8406 18.6294 27.0933 19.5848 27.0907 20.5565Z" fill="black"/>
</svg>
