<svg width="25" height="27" viewBox="0 0 25 27" fill="none" xmlns="http://www.w3.org/2000/svg">
<path d="M4.90341 7.96087C5.10537 6.13876 5.97225 4.45515 7.3381 3.23233C8.70395 2.0095 10.4728 1.33337 12.3061 1.33337C14.1393 1.33337 15.9082 2.0095 17.2741 3.23233C18.6399 4.45515 19.5068 6.13876 19.7087 7.96087L20.0447 10.9822L20.0527 11.0582C20.2249 12.5569 20.713 14.002 21.4847 15.2982L21.5247 15.3649L22.2941 16.6489C22.9941 17.8142 23.3434 18.3969 23.2674 18.8755C23.2172 19.1933 23.0538 19.4821 22.8074 19.6889C22.4354 20.0009 21.7554 20.0009 20.3967 20.0009H4.21541C2.85541 20.0009 2.17541 20.0009 1.80474 19.6902C1.55755 19.4833 1.39366 19.1939 1.34341 18.8755C1.26874 18.3969 1.61808 17.8142 2.31674 16.6489L3.08874 15.3635L3.12874 15.2969C3.89988 14.001 4.3875 12.5563 4.55941 11.0582L4.56741 10.9822L4.90341 7.96087Z" stroke="black" stroke-width="2.66667"/>
<path d="M6.97266 20.0009C6.97266 21.4153 7.53456 22.7719 8.53475 23.7721C9.53495 24.7723 10.8915 25.3342 12.306 25.3342C13.7205 25.3342 15.077 24.7723 16.0772 23.7721C17.0774 22.7719 17.6393 21.4153 17.6393 20.0009" stroke="black" stroke-width="2.66667" stroke-linecap="round"/>
</svg>
