<svg width="24" height="24" viewBox="0 0 24 24" fill="none" xmlns="http://www.w3.org/2000/svg">
<path d="M3.26944e-05 0H9.69333L11.3733 7.55806L9.27193 9.6594C10.5075 11.5823 12.1423 13.2167 14.0655 14.4518L16.1668 12.3516L23.7249 14.0316V23.7248H22.5951C18.2459 23.7323 13.988 22.478 10.3373 20.1141C7.64533 18.372 5.35285 16.0795 3.61073 13.3876C1.24685 9.7369 -0.00738298 5.47893 3.26944e-05 1.12975V0ZM2.29004 2.25951C2.48042 5.78425 3.59008 9.19776 5.50872 12.1607C7.07718 14.584 9.14092 16.6477 11.5642 18.2162C14.5271 20.1348 17.9406 21.2445 21.4654 21.4348V15.8437L16.8865 14.8269L14.4304 17.2841L13.6814 16.8582C10.8374 15.242 8.48284 12.8875 6.86668 10.0435L6.44076 9.29449L8.89798 6.8384L7.8812 2.25951H2.29004Z" fill="black"/>
</svg>
