<svg width="18" height="29" viewBox="0 0 18 29" fill="none" xmlns="http://www.w3.org/2000/svg">
<path d="M0.77149 0.745677C0.526931 0.98051 0.332907 1.25945 0.200524 1.56652C0.068142 1.8736 0 2.20278 0 2.53523C0 2.86767 0.068142 3.19685 0.200524 3.50393C0.332907 3.811 0.526931 4.08994 0.77149 4.32477L11.0072 14.1736L0.77149 24.0225C0.278229 24.4971 0.00111704 25.1408 0.00111704 25.8121C0.00111704 26.4833 0.278229 27.127 0.77149 27.6016C1.26475 28.0762 1.93376 28.3429 2.63133 28.3429C3.32891 28.3429 3.99791 28.0762 4.49118 27.6016L16.5999 15.9505C16.8445 15.7157 17.0385 15.4367 17.1709 15.1297C17.3033 14.8226 17.3714 14.4934 17.3714 14.1609C17.3714 13.8285 17.3033 13.4993 17.1709 13.1922C17.0385 12.8852 16.8445 12.6062 16.5999 12.3714L4.49118 0.720292C3.48871 -0.244287 1.80034 -0.244287 0.77149 0.745677Z" fill="black"/>
</svg>
