<svg width="24" height="24" viewBox="0 0 24 24" fill="none" xmlns="http://www.w3.org/2000/svg">
<path d="M1.3335 20.0001C1.3335 18.5856 1.8954 17.229 2.89559 16.2288C3.89579 15.2287 5.25234 14.6667 6.66683 14.6667H17.3335C18.748 14.6667 20.1045 15.2287 21.1047 16.2288C22.1049 17.229 22.6668 18.5856 22.6668 20.0001C22.6668 20.7073 22.3859 21.3856 21.8858 21.8857C21.3857 22.3858 20.7074 22.6667 20.0002 22.6667H4.00016C3.29292 22.6667 2.61464 22.3858 2.11454 21.8857C1.61445 21.3856 1.3335 20.7073 1.3335 20.0001Z" stroke="black" stroke-width="2.66667" stroke-linejoin="round"/>
<path d="M12 9.33337C14.2091 9.33337 16 7.54251 16 5.33337C16 3.12424 14.2091 1.33337 12 1.33337C9.79086 1.33337 8 3.12424 8 5.33337C8 7.54251 9.79086 9.33337 12 9.33337Z" stroke="black" stroke-width="2.66667"/>
</svg>
