<svg width="33" height="29" viewBox="0 0 33 29" fill="none" stroke='none' xmlns="http://www.w3.org/2000/svg">
<path d="M28.9172 3.54347C28.1842 2.81009 27.3138 2.22831 26.3559 1.83139C25.3979 1.43446 24.3712 1.23016 23.3343 1.23016C22.2974 1.23016 21.2706 1.43446 20.3127 1.83139C19.3548 2.22831 18.4844 2.81009 17.7514 3.54347L16.2301 5.06479L14.7088 3.54347C13.2281 2.06278 11.2199 1.23093 9.12588 1.23093C7.03189 1.23093 5.02366 2.06278 3.54298 3.54347C2.0623 5.02417 1.23047 7.03242 1.23047 9.12644C1.23047 11.2205 2.0623 13.2287 3.54298 14.7094L5.06429 16.2307L16.2301 27.3967L27.3959 16.2307L28.9172 14.7094C29.6506 13.9764 30.2323 13.106 30.6293 12.1481C31.0262 11.1901 31.2305 10.1634 31.2305 9.12644C31.2305 8.08952 31.0262 7.06276 30.6293 6.10481C30.2323 5.14687 29.6506 4.27651 28.9172 3.54347Z" stroke="#00354B" stroke-width="2.46035" stroke-linecap="round" stroke-linejoin="round"/>
</svg>
