<svg width="34" height="24" viewBox="0 0 34 24" fill="none" xmlns="http://www.w3.org/2000/svg">
<path d="M14.2217 8.69978V15.1327C14.2221 15.2155 14.2388 15.2974 14.2708 15.3737C14.3029 15.45 14.3497 15.5193 14.4085 15.5775C14.4673 15.6358 14.537 15.6819 14.6137 15.7132C14.6903 15.7445 14.7724 15.7604 14.8551 15.76C14.9799 15.7615 15.1021 15.725 15.2057 15.6554L20.0872 12.4667C20.1741 12.4104 20.2456 12.3334 20.2952 12.2427C20.3449 12.1519 20.3711 12.0502 20.3715 11.9467C20.372 11.8432 20.3467 11.7413 20.2978 11.6501C20.249 11.5588 20.1782 11.4812 20.0919 11.4242L15.2103 8.1801C15.0707 8.08668 14.9 8.05205 14.7351 8.08371C14.5701 8.11537 14.4244 8.21077 14.3293 8.34923C14.2586 8.45241 14.2211 8.5747 14.2217 8.69978Z" stroke="black" stroke-width="2.30625" stroke-linecap="round" stroke-linejoin="round"/>
<path d="M1.15332 11.9158C1.15332 6.84207 1.15332 4.3052 3.40422 2.72926C5.6582 1.15332 9.28055 1.15332 16.5283 1.15332C23.7761 1.15332 27.4 1.15332 29.6509 2.72926C31.9018 4.3052 31.9033 6.84207 31.9033 11.9158C31.9033 16.9896 31.9033 19.5264 29.6509 21.1024C27.4015 22.6783 23.7761 22.6783 16.5283 22.6783C9.28055 22.6783 5.65666 22.6783 3.40422 21.1024C1.15178 19.5264 1.15332 16.9896 1.15332 11.9158Z" stroke="black" stroke-width="2.30625" stroke-linecap="round" stroke-linejoin="round"/>
</svg>
